# MagicaVoxel @ Ephtracy

# group
o 

# material
mtllib MediumTank_head.mtl
usemtl palette

# normals
vn -1 0 0
vn 1 0 0
vn 0 0 1
vn 0 0 -1
vn 0 -1 0
vn 0 1 0

# texcoords
vt 0.306641 0.5
vt 0.650391 0.5
vt 0.912109 0.5
vt 0.994141 0.5

# verts
v 1 3.5 -1.8
v 1 3.5 -2.2
v 1 3.7 -1.8
v 1 3.7 -2.2
v 1.1 3.4 -1.7
v 1.1 3.4 -2.3
v 1.1 3.5 -1.8
v 1.1 3.5 -2.2
v 1.1 3.7 -1.7
v 1.1 3.7 -1.8
v 1.1 3.7 -2.2
v 1.1 3.7 -2.3
v 1.1 3.8 -1.8
v 1.1 3.8 -2.2
v 1.2 3.1 -1.5
v 1.2 3.1 -2.5
v 1.2 3.4 -1.7
v 1.2 3.4 -2.3
v 1.2 3.7 -1.7
v 1.2 3.7 -1.8
v 1.2 3.7 -2.2
v 1.2 3.7 -2.3
v 1.2 3.8 -1.8
v 1.2 3.8 -2.2
v 1.2 3.9 -1.5
v 1.2 3.9 -2.5
v 1.3 3.1 -1.4
v 1.3 3.1 -1.5
v 1.3 3.1 -2.5
v 1.3 3.1 -2.6
v 1.3 3.9 -1.5
v 1.3 3.9 -2.5
v 1.3 4 -1.4
v 1.3 4 -2.6
v 1.4 4 -1.6
v 1.4 4 -2.4
v 1.4 4.1 -1.6
v 1.4 4.1 -2.4
v 1.8 4.1 -1.7
v 1.8 4.1 -2
v 1.8 4.2 -1.7
v 1.8 4.2 -2
v 2.1 4.1 -1.7
v 2.1 4.1 -2
v 2.1 4.2 -1.7
v 2.1 4.2 -2
v 2.2 4 -1.6
v 2.2 4 -2.4
v 2.2 4.1 -1.6
v 2.2 4.1 -2.4
v 2.3 3.1 -1.4
v 2.3 3.1 -1.5
v 2.3 3.1 -2.5
v 2.3 3.1 -2.6
v 2.3 4 -1.4
v 2.3 4 -1.5
v 2.3 4 -2.5
v 2.3 4 -2.6
v 2.4 3.8 -1.5
v 2.4 3.8 -2.5
v 2.4 4 -1.5
v 2.4 4 -2.5
v 2.5 3.1 -1.5
v 2.5 3.1 -2.5
v 2.5 3.8 -1.5
v 2.5 3.8 -2.5
v 1.3 3.1 -1.4
v 1.3 4 -1.4
v 1.5 3.5 -1.4
v 1.5 3.6 -1.4
v 1.6 3.3 -1.4
v 1.6 3.5 -1.4
v 1.6 3.6 -1.4
v 1.6 3.8 -1.4
v 1.7 3.4 -1.4
v 1.7 3.5 -1.4
v 1.7 3.6 -1.4
v 1.7 3.7 -1.4
v 1.8 3.2 -1.4
v 1.8 3.3 -1.4
v 1.8 3.4 -1.4
v 1.8 3.5 -1.4
v 1.8 3.6 -1.4
v 1.8 3.7 -1.4
v 1.8 3.8 -1.4
v 1.8 3.9 -1.4
v 1.9 3.2 -1.4
v 1.9 3.3 -1.4
v 1.9 3.4 -1.4
v 1.9 3.5 -1.4
v 1.9 3.6 -1.4
v 1.9 3.7 -1.4
v 1.9 3.8 -1.4
v 1.9 3.9 -1.4
v 2 3.4 -1.4
v 2 3.5 -1.4
v 2 3.6 -1.4
v 2 3.7 -1.4
v 2.1 3.3 -1.4
v 2.1 3.5 -1.4
v 2.1 3.6 -1.4
v 2.1 3.8 -1.4
v 2.2 3.5 -1.4
v 2.2 3.6 -1.4
v 2.3 3.1 -1.4
v 2.3 4 -1.4
v 1.2 3.1 -1.5
v 1.2 3.9 -1.5
v 1.3 3.1 -1.5
v 1.3 3.9 -1.5
v 2.3 3.1 -1.5
v 2.3 4 -1.5
v 2.4 3.8 -1.5
v 2.4 4 -1.5
v 2.5 3.1 -1.5
v 2.5 3.8 -1.5
v 1.4 4 -1.6
v 1.4 4.1 -1.6
v 2.2 4 -1.6
v 2.2 4.1 -1.6
v 1.1 3.4 -1.7
v 1.1 3.7 -1.7
v 1.2 3.4 -1.7
v 1.2 3.7 -1.7
v 1.8 4.1 -1.7
v 1.8 4.2 -1.7
v 2.1 4.1 -1.7
v 2.1 4.2 -1.7
v 1 3.5 -1.8
v 1 3.7 -1.8
v 1.1 3.5 -1.8
v 1.1 3.7 -1.8
v 1.1 3.8 -1.8
v 1.2 3.7 -1.8
v 1.2 3.8 -1.8
v 1.8 4.1 -2
v 1.8 4.2 -2
v 2.1 4.1 -2
v 2.1 4.2 -2
v 1 3.5 -2.2
v 1 3.7 -2.2
v 1.1 3.5 -2.2
v 1.1 3.7 -2.2
v 1.1 3.8 -2.2
v 1.2 3.7 -2.2
v 1.2 3.8 -2.2
v 1.1 3.4 -2.3
v 1.1 3.7 -2.3
v 1.2 3.4 -2.3
v 1.2 3.7 -2.3
v 1.4 4 -2.4
v 1.4 4.1 -2.4
v 2.2 4 -2.4
v 2.2 4.1 -2.4
v 1.2 3.1 -2.5
v 1.2 3.9 -2.5
v 1.3 3.1 -2.5
v 1.3 3.9 -2.5
v 2.3 3.1 -2.5
v 2.3 4 -2.5
v 2.4 3.8 -2.5
v 2.4 4 -2.5
v 2.5 3.1 -2.5
v 2.5 3.8 -2.5
v 1.3 3.1 -2.6
v 1.3 4 -2.6
v 2.3 3.1 -2.6
v 2.3 4 -2.6
v 1.3 3.1 -1.4
v 2.3 3.1 -1.4
v 1.2 3.1 -1.5
v 1.3 3.1 -1.5
v 2.3 3.1 -1.5
v 2.5 3.1 -1.5
v 1.2 3.1 -2.5
v 1.3 3.1 -2.5
v 2.3 3.1 -2.5
v 2.5 3.1 -2.5
v 1.3 3.1 -2.6
v 2.3 3.1 -2.6
v 1.1 3.4 -1.7
v 1.2 3.4 -1.7
v 1.1 3.4 -2.3
v 1.2 3.4 -2.3
v 1 3.5 -1.8
v 1.1 3.5 -1.8
v 1 3.5 -2.2
v 1.1 3.5 -2.2
v 1.1 3.7 -1.7
v 1.2 3.7 -1.7
v 1 3.7 -1.8
v 1.1 3.7 -1.8
v 1.2 3.7 -1.8
v 1 3.7 -2.2
v 1.1 3.7 -2.2
v 1.2 3.7 -2.2
v 1.1 3.7 -2.3
v 1.2 3.7 -2.3
v 2.4 3.8 -1.5
v 2.5 3.8 -1.5
v 1.1 3.8 -1.8
v 1.2 3.8 -1.8
v 1.1 3.8 -2.2
v 1.2 3.8 -2.2
v 2.4 3.8 -2.5
v 2.5 3.8 -2.5
v 1.2 3.9 -1.5
v 1.3 3.9 -1.5
v 1.2 3.9 -2.5
v 1.3 3.9 -2.5
v 1.3 4 -1.4
v 2.3 4 -1.4
v 2.3 4 -1.5
v 2.4 4 -1.5
v 1.4 4 -1.6
v 2.2 4 -1.6
v 1.4 4 -2.4
v 2.2 4 -2.4
v 2.3 4 -2.5
v 2.4 4 -2.5
v 1.3 4 -2.6
v 2.3 4 -2.6
v 1.4 4.1 -1.6
v 2.2 4.1 -1.6
v 1.8 4.1 -1.7
v 2.1 4.1 -1.7
v 1.8 4.1 -2
v 2.1 4.1 -2
v 1.4 4.1 -2.4
v 2.2 4.1 -2.4
v 1.8 4.2 -1.7
v 2.1 4.2 -1.7
v 1.8 4.2 -2
v 2.1 4.2 -2

# faces
f 3/2/1 2/2/1 1/2/1
f 4/2/1 2/2/1 3/2/1
f 7/2/1 6/2/1 5/2/1
f 8/2/1 6/2/1 7/2/1
f 9/2/1 7/2/1 5/2/1
f 10/2/1 7/2/1 9/2/1
f 11/2/1 6/2/1 8/2/1
f 12/2/1 6/2/1 11/2/1
f 13/2/1 11/2/1 10/2/1
f 14/2/1 11/2/1 13/2/1
f 17/2/1 16/2/1 15/2/1
f 18/2/1 16/2/1 17/2/1
f 19/2/1 17/2/1 15/2/1
f 22/2/1 16/2/1 18/2/1
f 23/2/1 20/2/1 19/2/1
f 24/2/1 22/2/1 21/2/1
f 25/2/1 23/2/1 19/2/1
f 25/2/1 24/2/1 23/2/1
f 25/2/1 19/2/1 15/2/1
f 26/2/1 22/2/1 24/2/1
f 26/2/1 24/2/1 25/2/1
f 26/2/1 16/2/1 22/2/1
f 31/2/1 28/2/1 27/2/1
f 32/2/1 30/2/1 29/2/1
f 33/2/1 31/2/1 27/2/1
f 33/2/1 32/2/1 31/2/1
f 34/2/1 30/2/1 32/2/1
f 34/2/1 32/2/1 33/2/1
f 37/2/1 36/2/1 35/2/1
f 38/2/1 36/2/1 37/2/1
f 41/3/1 40/3/1 39/3/1
f 42/3/1 40/3/1 41/3/1
f 43/3/2 44/3/2 45/3/2
f 45/3/2 44/3/2 46/3/2
f 47/2/2 48/2/2 49/2/2
f 49/2/2 48/2/2 50/2/2
f 51/2/2 52/2/2 55/2/2
f 55/2/2 52/2/2 56/2/2
f 53/2/2 54/2/2 57/2/2
f 57/2/2 54/2/2 58/2/2
f 59/2/2 60/2/2 61/2/2
f 61/2/2 60/2/2 62/2/2
f 63/2/2 64/2/2 65/2/2
f 65/2/2 64/2/2 66/2/2
f 69/2/3 68/2/3 67/2/3
f 70/2/3 68/2/3 69/2/3
f 71/2/3 69/2/3 67/2/3
f 72/4/3 70/4/3 69/4/3
f 72/2/3 69/2/3 71/2/3
f 73/2/3 68/2/3 70/2/3
f 73/4/3 70/4/3 72/4/3
f 74/2/3 68/2/3 73/2/3
f 75/4/3 72/4/3 71/4/3
f 75/4/3 73/4/3 72/4/3
f 75/4/3 74/4/3 73/4/3
f 76/4/3 74/4/3 75/4/3
f 77/4/3 74/4/3 76/4/3
f 78/4/3 74/4/3 77/4/3
f 79/2/3 71/2/3 67/2/3
f 80/4/3 75/4/3 71/4/3
f 80/2/3 71/2/3 79/2/3
f 81/2/3 76/2/3 75/2/3
f 81/4/3 75/4/3 80/4/3
f 82/4/3 77/4/3 76/4/3
f 82/2/3 76/2/3 81/2/3
f 83/2/3 78/2/3 77/2/3
f 83/4/3 77/4/3 82/4/3
f 84/4/3 74/4/3 78/4/3
f 84/2/3 78/2/3 83/2/3
f 85/2/3 68/2/3 74/2/3
f 85/4/3 74/4/3 84/4/3
f 86/2/3 68/2/3 85/2/3
f 87/4/3 84/4/3 83/4/3
f 87/4/3 83/4/3 82/4/3
f 87/4/3 86/4/3 85/4/3
f 87/4/3 85/4/3 84/4/3
f 87/4/3 82/4/3 81/4/3
f 87/4/3 81/4/3 80/4/3
f 87/4/3 80/4/3 79/4/3
f 87/2/3 79/2/3 67/2/3
f 88/4/3 86/4/3 87/4/3
f 89/4/3 86/4/3 88/4/3
f 90/4/3 86/4/3 89/4/3
f 91/4/3 86/4/3 90/4/3
f 92/4/3 86/4/3 91/4/3
f 93/4/3 86/4/3 92/4/3
f 94/2/3 68/2/3 86/2/3
f 94/4/3 86/4/3 93/4/3
f 95/4/3 89/4/3 88/4/3
f 95/2/3 90/2/3 89/2/3
f 96/4/3 91/4/3 90/4/3
f 96/2/3 90/2/3 95/2/3
f 97/2/3 92/2/3 91/2/3
f 97/4/3 91/4/3 96/4/3
f 98/4/3 93/4/3 92/4/3
f 98/2/3 92/2/3 97/2/3
f 99/4/3 97/4/3 96/4/3
f 99/2/3 88/2/3 87/2/3
f 99/4/3 98/4/3 97/4/3
f 99/4/3 96/4/3 95/4/3
f 99/4/3 95/4/3 88/4/3
f 100/4/3 98/4/3 99/4/3
f 101/4/3 98/4/3 100/4/3
f 102/4/3 93/4/3 98/4/3
f 102/4/3 98/4/3 101/4/3
f 102/2/3 94/2/3 93/2/3
f 103/4/3 101/4/3 100/4/3
f 103/2/3 100/2/3 99/2/3
f 104/2/3 102/2/3 101/2/3
f 104/4/3 101/4/3 103/4/3
f 105/2/3 87/2/3 67/2/3
f 105/2/3 103/2/3 99/2/3
f 105/2/3 104/2/3 103/2/3
f 105/2/3 99/2/3 87/2/3
f 106/2/3 94/2/3 102/2/3
f 106/2/3 104/2/3 105/2/3
f 106/2/3 102/2/3 104/2/3
f 106/2/3 68/2/3 94/2/3
f 109/2/3 108/2/3 107/2/3
f 110/2/3 108/2/3 109/2/3
f 113/2/3 112/2/3 111/2/3
f 114/2/3 112/2/3 113/2/3
f 115/2/3 113/2/3 111/2/3
f 116/2/3 113/2/3 115/2/3
f 119/2/3 118/2/3 117/2/3
f 120/2/3 118/2/3 119/2/3
f 123/2/3 122/2/3 121/2/3
f 124/2/3 122/2/3 123/2/3
f 127/3/3 126/3/3 125/3/3
f 128/3/3 126/3/3 127/3/3
f 131/2/3 130/2/3 129/2/3
f 132/2/3 130/2/3 131/2/3
f 134/2/3 133/2/3 132/2/3
f 135/2/3 133/2/3 134/2/3
f 136/3/4 137/3/4 138/3/4
f 138/3/4 137/3/4 139/3/4
f 140/2/4 141/2/4 142/2/4
f 142/2/4 141/2/4 143/2/4
f 143/2/4 144/2/4 145/2/4
f 145/2/4 144/2/4 146/2/4
f 147/2/4 148/2/4 149/2/4
f 149/2/4 148/2/4 150/2/4
f 151/2/4 152/2/4 153/2/4
f 153/2/4 152/2/4 154/2/4
f 155/2/4 156/2/4 157/2/4
f 157/2/4 156/2/4 158/2/4
f 159/2/4 160/2/4 161/2/4
f 161/2/4 160/2/4 162/2/4
f 159/2/4 161/2/4 163/2/4
f 163/2/4 161/2/4 164/2/4
f 165/2/4 166/2/4 167/2/4
f 167/2/4 166/2/4 168/2/4
f 172/2/5 170/2/5 169/2/5
f 173/2/5 170/2/5 172/2/5
f 175/2/5 172/2/5 171/2/5
f 175/2/5 174/2/5 173/2/5
f 175/2/5 173/2/5 172/2/5
f 176/2/5 174/2/5 175/2/5
f 177/2/5 174/2/5 176/2/5
f 178/2/5 174/2/5 177/2/5
f 179/2/5 177/2/5 176/2/5
f 180/2/5 177/2/5 179/2/5
f 183/2/5 182/2/5 181/2/5
f 184/2/5 182/2/5 183/2/5
f 187/2/5 186/2/5 185/2/5
f 188/2/5 186/2/5 187/2/5
f 189/2/6 190/2/6 192/2/6
f 192/2/6 190/2/6 193/2/6
f 191/2/6 192/2/6 194/2/6
f 194/2/6 192/2/6 195/2/6
f 195/2/6 196/2/6 197/2/6
f 197/2/6 196/2/6 198/2/6
f 201/2/6 202/2/6 203/2/6
f 203/2/6 202/2/6 204/2/6
f 199/2/6 200/2/6 205/2/6
f 205/2/6 200/2/6 206/2/6
f 207/2/6 208/2/6 209/2/6
f 209/2/6 208/2/6 210/2/6
f 211/2/6 212/2/6 213/2/6
f 211/2/6 213/2/6 215/2/6
f 213/2/6 214/2/6 215/2/6
f 215/2/6 214/2/6 216/2/6
f 211/2/6 215/2/6 217/2/6
f 216/2/6 214/2/6 218/2/6
f 218/2/6 214/2/6 219/2/6
f 217/2/6 218/2/6 219/2/6
f 219/2/6 214/2/6 220/2/6
f 211/2/6 217/2/6 221/2/6
f 217/2/6 219/2/6 221/2/6
f 221/2/6 219/2/6 222/2/6
f 223/2/6 224/2/6 225/2/6
f 225/2/6 224/2/6 226/2/6
f 223/2/6 225/2/6 227/2/6
f 226/2/6 224/2/6 228/2/6
f 223/2/6 227/2/6 229/2/6
f 227/2/6 228/2/6 229/2/6
f 228/2/6 224/2/6 230/2/6
f 229/2/6 228/2/6 230/2/6
f 231/3/6 232/3/6 233/3/6
f 233/3/6 232/3/6 234/3/6
